<?xml version="1.0" encoding="UTF-8" standalone="no"?>
<svg width="12px" height="15px" viewBox="0 0 12 15" version="1.1" xmlns="http://www.w3.org/2000/svg" xmlns:xlink="http://www.w3.org/1999/xlink" xmlns:sketch="http://www.bohemiancoding.com/sketch/ns">
    <!-- Generator: Sketch 3.5.2 (25235) - http://www.bohemiancoding.com/sketch -->
    <title>ic_note_add_black_18px (1)</title>
    <desc>Created with Sketch.</desc>
    <defs></defs>
    <g id="mobile" stroke="none" stroke-width="1" fill="none" fill-rule="evenodd" sketch:type="MSPage">
        <g id="Resume" sketch:type="MSArtboardGroup" transform="translate(-162.000000, -182.000000)" fill="#95A5A6">
            <g id="ic_note_add_black_18px-(1)" sketch:type="MSLayerGroup" transform="translate(162.000000, 182.000000)">
                <g id="Group" sketch:type="MSShapeGroup">
                    <path d="M7.5,0 L1.5,0 C0.675,0 0.0075,0.675 0.0075,1.5 L0,13.5 C0,14.325 0.6675,15 1.4925,15 L10.5,15 C11.325,15 12,14.325 12,13.5 L12,4.5 L7.5,0 L7.5,0 Z M9,10.5 L6.75,10.5 L6.75,12.75 L5.25,12.75 L5.25,10.5 L3,10.5 L3,9 L5.25,9 L5.25,6.75 L6.75,6.75 L6.75,9 L9,9 L9,10.5 L9,10.5 Z M6.75,5.25 L6.75,1.125 L10.875,5.25 L6.75,5.25 L6.75,5.25 Z" id="Shape"></path>
                </g>
            </g>
        </g>
    </g>
</svg>